<svg xmlns="http://www.w3.org/2000/svg" xmlns:xlink="http://www.w3.org/1999/xlink" preserveAspectRatio="xMidYMid" class="d-none hide">
    <g id="ga-facebook"><rect stroke="null" height="24" width="24" y="0" x="0" stroke-opacity="null" stroke-width="null" fill="#1877F2"/><path fill="#ffffff" d="M20,12.0488907 C20,7.60360785 16.4182812,4 12,4 C7.58171875,4 4,7.60360785 4,12.0488907 C4,16.0663247 6.92548437,19.396176 10.75,20 L10.75,14.3755232 L8.71875,14.3755232 L8.71875,12.0488907 L10.75,12.0488907 L10.75,10.2756195 C10.75,8.25836625 11.9443437,7.14409794 13.7717187,7.14409794 C14.6469844,7.14409794 15.5625,7.30130284 15.5625,7.30130284 L15.5625,9.28208454 L14.5537187,9.28208454 C13.5599219,9.28208454 13.25,9.9025251 13.25,10.5390477 L13.25,12.0488907 L15.46875,12.0488907 L15.1140625,14.3755232 L13.25,14.3755232 L13.25,20 C17.0745156,19.396176 20,16.0663247 20,12.0488907"/></g>
    <path id="ga-vkontakte" style="fill: #6383A8;" d="M0 0v24h24v-24h-24zm19.25 16.996h-2.133c-1.205 0-1.41-.687-2.402-1.679-.897-.897-1.394-.209-1.374 1.068.006.339-.161.611-.566.611-1.264 0-3.08.178-4.918-1.806-1.883-2.033-3.857-6.111-3.857-6.513 0-.237.196-.344.524-.344h2.17c.574 0 .623.284.783.649.667 1.521 2.265 4.574 2.69 2.87.244-.978.344-3.245-.703-3.44-.594-.11.452-.746 1.968-.746.377 0 .786.041 1.205.137.769.179.771.523.761 1.026-.039 1.903-.269 3.184.233 3.507.479.31 1.739-1.717 2.403-3.281.183-.433.22-.722.735-.722h2.655c1.389 0-.182 1.997-1.383 3.557-.968 1.255-.916 1.28.208 2.324.802.744 1.75 1.76 1.75 2.336.001.272-.211.446-.749.446z"/>
    <path id="ga-twitter" style="fill: #1DA1F2;" d="M0 0v24h24v-24h-24zm18.862 9.237c.208 4.617-3.235 9.765-9.33 9.765-1.854 0-3.579-.543-5.032-1.475 1.742.205 3.48-.278 4.86-1.359-1.437-.027-2.649-.976-3.066-2.28.515.098 1.021.069 1.482-.056-1.579-.317-2.668-1.739-2.633-3.26.442.246.949.394 1.486.411-1.461-.977-1.875-2.907-1.016-4.383 1.619 1.986 4.038 3.293 6.766 3.43-.479-2.053 1.079-4.03 3.198-4.03.944 0 1.797.398 2.396 1.037.748-.147 1.451-.42 2.085-.796-.245.767-.766 1.41-1.443 1.816.664-.08 1.297-.256 1.885-.517-.44.656-.997 1.234-1.638 1.697z"/>
    <g id="ga-google"><rect stroke="null" height="24" width="24" y="0" x="0" stroke-opacity="null" stroke-width="null" fill="#ecebec"/><g fill="none" fill-rule="evenodd" transform="translate(4.000000, 4.000000)"><path fill="#4285F4" d="M15.7,8.2c0-0.6-0.1-1.1-0.1-1.6H8v3.1h4.3c-0.2,1-0.7,1.8-1.6,2.4v2h2.6C14.8,12.7,15.7,10.6,15.7,8.2L15.7,8.2z"/><path fill="#34A853" d="M8,16c2.2,0,4-0.7,5.3-1.9l-2.6-2C10,12.5,9.1,12.8,8,12.8c-2.1,0-3.8-1.4-4.5-3.3H0.9v2.1C2.2,14.2,4.9,16,8,16L8,16z"/><path fill="#FBBC05" d="M3.5,9.5C3.4,9,3.3,8.5,3.3,8s0.1-1,0.3-1.5V4.4H0.9C0.3,5.5,0,6.7,0,8s0.3,2.5,0.9,3.6L3.5,9.5L3.5,9.5z"/><path fill="#EA4335" d="M8,3.2c1.2,0,2.2,0.4,3.1,1.2l2.3-2.3C12,0.8,10.2,0,8,0C4.9,0,2.2,1.8,0.9,4.4l2.7,2.1C4.2,4.6,5.9,3.2,8,3.2L8,3.2z"/><path class="st4" d="M0,0h16v16H0V0z"/></g></g>
</svg>
